<?xml version="1.0" encoding="UTF-8"?>
<svg version="1.1" xmlns="http://www.w3.org/2000/svg" width="781" height="153">
<path d="M0 0 C-0.33 2.97 -0.66 5.94 -1 9 C-4.96061739 7.7360971 -8.7122817 6.27016513 -12.5 4.5625 C-33.87725933 -4.30316093 -54.5208572 -1.83427271 -76 5 C-75.34 9.62 -74.68 14.24 -74 19 C-72.35 18.21625 -70.7 17.4325 -69 16.625 C-52.97129139 9.4334121 -36.09382514 9.64036837 -19.57421875 15.140625 C-13.77594534 17.42238639 -8.87279564 20.12391256 -4 24 C-4.66 26.31 -5.32 28.62 -6 31 C-10.31870131 31 -11.03903681 30.5653105 -14.4375 28.25 C-27.26395541 20.39402876 -41.86759335 18.91652633 -56.52734375 21.66015625 C-63.08703566 23.65133737 -68.80802204 26.99031298 -74.6015625 30.609375 C-77 32 -77 32 -79 32 C-79.81694231 29.29293656 -80.62866494 26.58448604 -81.4375 23.875 C-81.66759766 23.11445312 -81.89769531 22.35390625 -82.13476562 21.5703125 C-83.86452287 15.75431713 -85.15505861 10.23386796 -85.0625 4.125 C-85.05347656 3.34382813 -85.04445313 2.56265625 -85.03515625 1.7578125 C-85.02355469 1.17773438 -85.01195312 0.59765625 -85 0 C-58.34788141 -14.6797222 -26.70168092 -13.71661691 0 0 Z " fill="#FFFFFF" transform="translate(648,83)"/>
<path d="M0 0 C1.69066945 1.43420063 3.33982539 2.89402576 4.95703125 4.41015625 C3.33203125 10.16015625 3.33203125 10.16015625 -0.04296875 12.41015625 C-0.56503906 11.95125 -1.08710937 11.49234375 -1.625 11.01953125 C-10.25760509 3.82317394 -18.50601074 0.66050164 -29.8125 1.01171875 C-35.58509761 1.72369572 -41.84109701 3.20828451 -46.04296875 7.41015625 C-45.38296875 8.40015625 -44.72296875 9.39015625 -44.04296875 10.41015625 C-43.5325 10.20519531 -43.02203125 10.00023438 -42.49609375 9.7890625 C-31.77935971 5.81779049 -21.83595972 5.48677819 -11.04296875 9.41015625 C-7.9201376 10.90291384 -4.9589926 12.54714101 -2.04296875 14.41015625 C-3.45438489 23.61596002 -14.26074578 30.45231911 -21.24609375 35.79296875 C-24.32491201 37.57317931 -25.57295379 38.09224967 -29.04296875 37.41015625 C-31.9375 35.66015625 -31.9375 35.66015625 -34.85546875 33.41015625 C-35.83128906 32.66765625 -36.80710937 31.92515625 -37.8125 31.16015625 C-38.54855469 30.58265625 -39.28460937 30.00515625 -40.04296875 29.41015625 C-39.71296875 28.42015625 -39.38296875 27.43015625 -39.04296875 26.41015625 C-35.48046875 24.72265625 -35.48046875 24.72265625 -32.04296875 23.41015625 C-31.46546875 23.92578125 -30.88796875 24.44140625 -30.29296875 24.97265625 C-28.2155789 26.63306222 -28.2155789 26.63306222 -26.13671875 26.19140625 C-23.69292747 25.27954383 -22.22311397 24.09221058 -20.29296875 22.34765625 C-19.679375 21.79980469 -19.06578125 21.25195312 -18.43359375 20.6875 C-17.9746875 20.26597656 -17.51578125 19.84445313 -17.04296875 19.41015625 C-19.8353509 16.6177741 -22.3620804 16.22724743 -26.16796875 16.09765625 C-33.77961097 16.18443393 -39.32821296 19.65452031 -45.04296875 24.41015625 C-48.07517436 20.76891789 -51.07417362 17.10329658 -54.04296875 13.41015625 C-54.79707031 12.47429687 -54.79707031 12.47429687 -55.56640625 11.51953125 C-57.2644452 9.23139366 -58.06160895 7.85752099 -57.94140625 4.97265625 C-56.15614089 -0.11923102 -50.59457992 -2.18611707 -46.04296875 -4.58984375 C-31.14951419 -10.96285687 -13.10373407 -10.19736093 0 0 Z " fill="#FFFFFF" transform="translate(632.04296875,115.58984375)"/>
<path d="M0 0 C3.70033735 1.96555554 5.97463344 4.43836227 7.56640625 8.27734375 C7.60799877 9.94349135 7.61368827 11.6113479 7.56640625 13.27734375 C5.7969153 13.385496 4.02553138 13.46300458 2.25390625 13.52734375 C1.26777344 13.57375 0.28164063 13.62015625 -0.734375 13.66796875 C-3.43359375 13.27734375 -3.43359375 13.27734375 -5.05859375 11.27734375 C-5.73921875 10.28734375 -5.73921875 10.28734375 -6.43359375 9.27734375 C-10.05923189 8.94353561 -10.05923189 8.94353561 -13.43359375 9.27734375 C-13.76359375 10.59734375 -14.09359375 11.91734375 -14.43359375 13.27734375 C-13.26441406 13.591875 -12.09523438 13.90640625 -10.890625 14.23046875 C-9.34227223 14.66213073 -7.79410472 15.09445761 -6.24609375 15.52734375 C-5.47716797 15.73230469 -4.70824219 15.93726562 -3.91601562 16.1484375 C1.52992333 17.69106399 5.80134164 19.46928642 8.94140625 24.46484375 C10.11453357 29.7439167 9.62410568 34.47533731 6.87890625 39.15234375 C2.00181352 43.63399653 -2.81090223 44.83654648 -9.30859375 44.77734375 C-10.01459717 44.77307373 -10.72060059 44.76880371 -11.44799805 44.7644043 C-17.26970431 44.57417882 -21.31135522 43.42229433 -25.43359375 39.27734375 C-28.46860177 35.48358373 -28.43359375 34.37753019 -28.43359375 29.27734375 C-24.47359375 29.27734375 -20.51359375 29.27734375 -16.43359375 29.27734375 C-15.77359375 30.59734375 -15.11359375 31.91734375 -14.43359375 33.27734375 C-11.44764951 34.77031587 -8.72505751 34.39489603 -5.43359375 34.27734375 C-4.44359375 33.78234375 -4.44359375 33.78234375 -3.43359375 33.27734375 C-3.37132918 31.32243954 -3.37132918 31.32243954 -4.43359375 29.27734375 C-6.87019394 28.24381667 -9.08894306 27.47338517 -11.62109375 26.77734375 C-17.46848756 25.12295916 -23.3524976 23.4442292 -26.87109375 18.08984375 C-27.69306743 13.97997537 -27.57832477 10.3205924 -26.43359375 6.27734375 C-20.00219169 -1.89227508 -9.66760124 -2.87079652 0 0 Z " fill="#FFFFFF" transform="translate(345.43359375,60.72265625)"/>
<path d="M0 0 C3.18209829 1.84165395 4.95659923 3.42553149 6.8203125 6.609375 C7.3203125 9.046875 7.3203125 9.046875 7.3203125 13.046875 C5.55082155 13.15502725 3.77943763 13.23253583 2.0078125 13.296875 C1.02167969 13.34328125 0.03554687 13.3896875 -0.98046875 13.4375 C-3.6796875 13.046875 -3.6796875 13.046875 -5.2421875 11.046875 C-5.7165625 10.386875 -6.1909375 9.726875 -6.6796875 9.046875 C-8.95858092 8.56518772 -8.95858092 8.56518772 -11.3671875 8.796875 C-12.17542969 8.83296875 -12.98367187 8.8690625 -13.81640625 8.90625 C-14.43128906 8.95265625 -15.04617187 8.9990625 -15.6796875 9.046875 C-15.78786201 11.00330553 -15.78786201 11.00330553 -14.6796875 13.046875 C-12.05487655 14.10458991 -9.64779344 14.89874343 -6.9296875 15.609375 C4.83185096 18.81418269 4.83185096 18.81418269 8.3203125 24.046875 C9.02554177 29.27049182 8.92488569 33.74471737 6.6953125 38.546875 C3.02145894 42.41408928 -0.23597963 43.89842923 -5.5546875 44.4453125 C-6.92968716 44.45318464 -8.30486203 44.44513333 -9.6796875 44.421875 C-10.36546875 44.43347656 -11.05125 44.44507813 -11.7578125 44.45703125 C-17.21497533 44.42578795 -21.15553338 43.14250993 -25.359375 39.65234375 C-27.6835247 36.8952642 -28.65698466 35.29206566 -28.9921875 31.671875 C-28.8890625 30.805625 -28.7859375 29.939375 -28.6796875 29.046875 C-24.96896228 28.75443606 -21.3815051 28.60118874 -17.6796875 29.046875 C-14.8671875 31.546875 -14.8671875 31.546875 -12.6796875 34.046875 C-8.53744444 34.62678903 -7.19793261 34.39237174 -3.6796875 32.046875 C-4.0096875 31.056875 -4.3396875 30.066875 -4.6796875 29.046875 C-7.08667268 28.10010771 -9.39110584 27.32051504 -11.8671875 26.609375 C-17.59719649 24.94906996 -23.20995639 23.19016914 -27.0546875 18.296875 C-28.32497505 13.72383983 -28.30760074 9.6720622 -26.6171875 5.296875 C-19.99388412 -2.39470312 -9.38801768 -3.3391783 0 0 Z " fill="#FFFFFF" transform="translate(138.6796875,60.953125)"/>
<path d="M0 0 C6.93 0 13.86 0 21 0 C28.80389805 7.80389805 28.80389805 7.80389805 28.94697571 12.82301331 C28.92966904 13.51177048 28.91236237 14.20052765 28.89453125 14.91015625 C28.90101936 16.00595253 28.90101936 16.00595253 28.90763855 17.12388611 C28.90801762 18.65763232 28.89111632 20.19147207 28.85766602 21.72485352 C28.81250917 24.06202538 28.83696201 26.39126733 28.86914062 28.72851562 C28.86092138 30.22659102 28.84868736 31.7246509 28.83203125 33.22265625 C28.84103958 33.91343765 28.85004791 34.60421906 28.85932922 35.31593323 C28.64460497 41.69402968 27.17037137 41.82962863 22 47 C14.74 47 7.48 47 0 47 C0 31.49 0 15.98 0 0 Z M11 10 C11 18.91 11 27.82 11 37 C13.31 37 15.62 37 18 37 C18 28.09 18 19.18 18 10 C15.69 10 13.38 10 11 10 Z " fill="#FFFFFF" transform="translate(751,69)"/>
<path d="M0 0 C1.25659424 0.02247803 1.25659424 0.02247803 2.53857422 0.04541016 C4.10115967 0.12734619 4.10115967 0.12734619 5.6953125 0.2109375 C10.7071875 0.3965625 10.7071875 0.3965625 15.8203125 0.5859375 C15.8203125 10.4859375 15.8203125 20.3859375 15.8203125 30.5859375 C14.5003125 30.5859375 13.1803125 30.5859375 11.8203125 30.5859375 C12.18125 31.56175781 12.5421875 32.53757812 12.9140625 33.54296875 C13.38306412 34.82803319 13.85180029 36.11319454 14.3203125 37.3984375 C14.55878906 38.04103516 14.79726563 38.68363281 15.04296875 39.34570312 C16.09099996 42.23527489 16.8203125 44.48669811 16.8203125 47.5859375 C13.5203125 47.5859375 10.2203125 47.5859375 6.8203125 47.5859375 C6.00198528 45.69261216 5.19088982 43.79616017 4.3828125 41.8984375 C3.70412109 40.31482422 3.70412109 40.31482422 3.01171875 38.69921875 C1.96583795 35.96621221 1.28510502 33.46551413 0.8203125 30.5859375 C0.1603125 30.5859375 -0.4996875 30.5859375 -1.1796875 30.5859375 C-1.1796875 36.1959375 -1.1796875 41.8059375 -1.1796875 47.5859375 C-4.4796875 47.5859375 -7.7796875 47.5859375 -11.1796875 47.5859375 C-11.32838511 41.85688564 -11.43706808 36.12896486 -11.50927734 30.3984375 C-11.5393878 28.45064724 -11.58028638 26.50299188 -11.63232422 24.55566406 C-11.70539518 21.75031217 -11.73920026 18.94675727 -11.765625 16.140625 C-11.79659271 15.27476776 -11.82756042 14.40891052 -11.85946655 13.51681519 C-11.86191292 9.0881798 -11.52790036 6.35973994 -8.46679688 3.02539062 C-5.6851036 0.66576937 -3.71741598 -0.13768207 0 0 Z M-1.1796875 10.5859375 C-1.1796875 14.2159375 -1.1796875 17.8459375 -1.1796875 21.5859375 C1.1303125 21.5859375 3.4403125 21.5859375 5.8203125 21.5859375 C5.8203125 17.9559375 5.8203125 14.3259375 5.8203125 10.5859375 C3.5103125 10.5859375 1.2003125 10.5859375 -1.1796875 10.5859375 Z " fill="#FFFFFF" transform="translate(706.1796875,68.4140625)"/>
<path d="M0 0 C3.3 0 6.6 0 10 0 C10 14.52 10 29.04 10 44 C6 44 2 44 -2 44 C-2.99 44.495 -2.99 44.495 -4 45 C-8.24372631 45.61289649 -12.27315058 45.90903367 -16.14453125 43.87109375 C-19.98609862 40.77357733 -22.10789533 37.95613704 -23 33 C-23.47752461 27.07869481 -22.93923955 22.2414576 -20 17 C-17.36612947 13.91644425 -15.56685192 12.23185503 -11.4921875 11.62890625 C-7.0850493 11.51969146 -4.74709427 11.50193716 -1 14 C-0.67 9.38 -0.34 4.76 0 0 Z M-9.75 20.9375 C-11.67266794 24.10990211 -12.12084278 27.35339131 -12 31 C-10.76541678 34.05396901 -9.99447181 35.48672423 -7.0625 37 C-4.91930125 37.13540976 -4.91930125 37.13540976 -2.8125 36.0625 C-0.16073308 33.04497213 0.18949907 29.88852099 0 26 C-0.93849513 23.01658383 -0.93849513 23.01658383 -3 21 C-5.76027347 19.89589061 -7.09352285 19.51438724 -9.75 20.9375 Z " fill="#FFFFFF" transform="translate(236,60)"/>
<path d="M0 0 C0.928125 0.01933594 1.85625 0.03867188 2.8125 0.05859375 C3.76382813 0.10886719 4.71515625 0.15914063 5.6953125 0.2109375 C7.15710938 0.25154297 7.15710938 0.25154297 8.6484375 0.29296875 C11.04002208 0.36330947 13.43045997 0.47091786 15.8203125 0.5859375 C15.8203125 6.5259375 15.8203125 12.4659375 15.8203125 18.5859375 C12.5203125 18.5859375 9.2203125 18.5859375 5.8203125 18.5859375 C5.8203125 15.9459375 5.8203125 13.3059375 5.8203125 10.5859375 C3.5103125 10.5859375 1.2003125 10.5859375 -1.1796875 10.5859375 C-1.1796875 19.4959375 -1.1796875 28.4059375 -1.1796875 37.5859375 C1.1303125 37.5859375 3.4403125 37.5859375 5.8203125 37.5859375 C5.8203125 35.6059375 5.8203125 33.6259375 5.8203125 31.5859375 C9.1203125 31.5859375 12.4203125 31.5859375 15.8203125 31.5859375 C16.59375 41.125 16.59375 41.125 13.4765625 44.8984375 C9.87053419 48.20582993 6.5681408 48.21203158 1.828125 48.11328125 C0.87679687 48.06300781 -0.07453125 48.01273438 -1.0546875 47.9609375 C-2.51648438 47.92033203 -2.51648438 47.92033203 -4.0078125 47.87890625 C-6.40074679 47.80852583 -8.78904412 47.71015158 -11.1796875 47.5859375 C-11.32838511 41.85688564 -11.43706808 36.12896486 -11.50927734 30.3984375 C-11.5393878 28.45064724 -11.58028638 26.50299188 -11.63232422 24.55566406 C-11.70539518 21.75031217 -11.73920026 18.94675727 -11.765625 16.140625 C-11.79659271 15.27476776 -11.82756042 14.40891052 -11.85946655 13.51681519 C-11.86191292 9.0881798 -11.52790036 6.35973994 -8.46679688 3.02539062 C-5.6851036 0.66576937 -3.71741598 -0.13768207 0 0 Z " fill="#FFFFFF" transform="translate(676.1796875,68.4140625)"/>
<path d="M0 0 C7.59 0 15.18 0 23 0 C23 3.3 23 6.6 23 10 C18.71 10 14.42 10 10 10 C10 12.64 10 15.28 10 18 C13.96 18 17.92 18 22 18 C22 20.97 22 23.94 22 27 C18.04 27 14.08 27 10 27 C10 30.3 10 33.6 10 37 C14.29 37 18.58 37 23 37 C23 40.3 23 43.6 23 47 C15.41 47 7.82 47 0 47 C0 31.49 0 15.98 0 0 Z " fill="#FFFFFF" transform="translate(726,69)"/>
<path d="M0 0 C1.54300781 -0.03867188 1.54300781 -0.03867188 3.1171875 -0.078125 C6.62224413 0.30424481 8.35209929 1.08807741 11.125 3.25 C13.73995287 6.90570649 14.51723307 9.51951688 14.63671875 13.98828125 C14.68989258 15.58833008 14.68989258 15.58833008 14.74414062 17.22070312 C14.76669922 18.32349609 14.78925781 19.42628906 14.8125 20.5625 C14.86374023 22.24569336 14.86374023 22.24569336 14.91601562 23.96289062 C14.99829601 26.72516062 15.06751281 29.48712113 15.125 32.25 C10.79166667 32.25 6.45833333 32.25 2.125 32.25 C1.135 32.745 1.135 32.745 0.125 33.25 C-1.49665752 33.37148305 -3.12384327 33.42543652 -4.75 33.4375 C-5.61367188 33.45167969 -6.47734375 33.46585938 -7.3671875 33.48046875 C-10.06611813 33.23243618 -11.61285306 32.72382301 -13.875 31.25 C-15.91531755 28.18952368 -16.19093524 27.31504006 -16.25 23.8125 C-16.27835937 23.05066406 -16.30671875 22.28882812 -16.3359375 21.50390625 C-15.67694687 18.28155375 -14.4824233 17.23180966 -11.875 15.25 C-8.45703125 14.08984375 -8.45703125 14.08984375 -4.6875 13.1875 C-0.99307881 12.36270574 -0.99307881 12.36270574 2.125 11.25 C2.455 10.26 2.785 9.27 3.125 8.25 C0.815 8.25 -1.495 8.25 -3.875 8.25 C-4.205 9.24 -4.535 10.23 -4.875 11.25 C-8.175 11.25 -11.475 11.25 -14.875 11.25 C-14.46065093 6.41592748 -12.49706046 4.35462326 -8.875 1.25 C-5.71490467 0.19663489 -3.3196864 0.04967112 0 0 Z M-4.875 21.25 C-4.875 22.57 -4.875 23.89 -4.875 25.25 C-2.58205512 26.10974801 -2.58205512 26.10974801 0.125 26.25 C2.54166667 24.66666667 2.54166667 24.66666667 4.125 22.25 C4.125 20.93 4.125 19.61 4.125 18.25 C0.82144454 18.25 -1.89608249 19.92603666 -4.875 21.25 Z " fill="#FFFFFF" transform="translate(405.875,71.75)"/>
<path d="M0 0 C3.96 0 7.92 0 12 0 C12.67184618 2.10251861 13.33730968 4.20707763 14 6.3125 C14.37125 7.48425781 14.7425 8.65601562 15.125 9.86328125 C16 13 16 13 16 16 C16.66 16 17.32 16 18 16 C18.103125 15.030625 18.20625 14.06125 18.3125 13.0625 C18.94904218 8.49437375 20.46471205 4.33885724 22 0 C25.63 0 29.26 0 33 0 C32.10518105 6.34193231 30.02697442 12.07717709 27.87182617 18.0859375 C27.19054685 19.99147796 26.52361734 21.90164203 25.85742188 23.8125 C25.42365234 25.029375 24.98988281 26.24625 24.54296875 27.5 C24.15133545 28.6034375 23.75970215 29.706875 23.35620117 30.84375 C21.43966132 35.30406093 19.68855877 39.15572061 15.25 41.375 C11.37723334 42.11976282 7.93910428 42.13583118 4 42 C4 39.03 4 36.06 4 33 C7.465 32.505 7.465 32.505 11 32 C6.14225668 17.71669798 6.14225668 17.71669798 0.62890625 3.6796875 C0 2 0 2 0 0 Z " fill="#FFFFFF" transform="translate(284,73)"/>
<path d="M0 0 C4.47870656 2.15937638 7.18198188 4.92952939 10 9 C11.84138184 14.52414552 11.79150747 19.94053424 9.4375 25.3125 C7.15380894 29.27142463 4.43379782 31.74559813 0 33 C-6.4929022 33.74918102 -11.55440091 33.92267731 -17 30 C-21.06503591 26.05814699 -23.13204193 22.37897691 -23.25 16.6875 C-23.16978147 11.73801681 -22.17062261 8.13589265 -18.53515625 4.55859375 C-12.54303198 -0.58379162 -7.72546291 -0.7280541 0 0 Z M-10.875 10.0625 C-12.6540389 14.70776823 -12.6540389 18.29223177 -10.875 22.9375 C-9.11441018 25.2908033 -9.11441018 25.2908033 -6 25.5625 C-3.00389743 25.24403918 -3.00389743 25.24403918 -1.125 23.5 C0.97765315 18.82743744 0.62020725 14.65388599 -1.125 10 C-2.90200638 7.72058837 -2.90200638 7.72058837 -6 7.375 C-9.11124186 7.71683631 -9.11124186 7.71683631 -10.875 10.0625 Z " fill="#FFFFFF" transform="translate(172,72)"/>
<path d="M0 0 C3.23965549 1.79214985 4.58001985 3.08687243 6.12109375 6.4375 C7.35609424 11.44336866 7.21110481 16.24182836 7.125 21.375 C7.11597656 22.39722656 7.10695313 23.41945313 7.09765625 24.47265625 C7.07420563 26.9818724 7.03833836 29.49096716 7 32 C3.37 32 -0.26 32 -4 32 C-4.06058594 30.57945313 -4.12117188 29.15890625 -4.18359375 27.6953125 C-4.26799291 25.83853091 -4.35264123 23.98176064 -4.4375 22.125 C-4.47681641 21.18785156 -4.51613281 20.25070313 -4.55664062 19.28515625 C-4.59853516 18.38925781 -4.64042969 17.49335937 -4.68359375 16.5703125 C-4.72025146 15.74289551 -4.75690918 14.91547852 -4.79467773 14.06298828 C-4.88238327 11.93820571 -4.88238327 11.93820571 -6 10 C-7.66611905 9.957279 -9.33382885 9.95936168 -11 10 C-12.61780157 11.61780157 -12.22272147 13.45635518 -12.31640625 15.69140625 C-12.35830078 16.63564453 -12.40019531 17.57988281 -12.44335938 18.55273438 C-12.48267578 19.54595703 -12.52199219 20.53917969 -12.5625 21.5625 C-12.60568359 22.55958984 -12.64886719 23.55667969 -12.69335938 24.58398438 C-12.79980167 27.05581111 -12.90043759 29.5278866 -13 32 C-16.63 32 -20.26 32 -24 32 C-24 21.77 -24 11.54 -24 1 C-19.66666667 1 -15.33333333 1 -11 1 C-7.53193957 -0.73403022 -3.7919279 -0.46579045 0 0 Z " fill="#FFFFFF" transform="translate(448,72)"/>
<path d="M0 0 C26.07 0 52.14 0 79 0 C79 2.97 79 5.94 79 9 C52.93 9 26.86 9 0 9 C0 6.03 0 3.06 0 0 Z " fill="#2EF47C" transform="translate(3,81)"/>
<path d="M0 0 C4.49342843 2.1284661 6.95569733 4.45710517 9 9 C9 10.32 9 11.64 9 13 C7.3973218 13.10824843 5.79254252 13.18570645 4.1875 13.25 C3.29417969 13.29640625 2.40085937 13.3428125 1.48046875 13.390625 C-1 13 -1 13 -2.82421875 10.984375 C-3.21222656 10.32953125 -3.60023438 9.6746875 -4 9 C-6.45224694 9.10613836 -6.45224694 9.10613836 -9 10 C-11.01684653 13.11694464 -11.00217588 14.96790579 -10.75 18.6875 C-10.29616483 22.05950406 -10.29616483 22.05950406 -8 24 C-4.91652174 24.16681109 -4.91652174 24.16681109 -2 24 C-1.67 22.68 -1.34 21.36 -1 20 C2.3 20 5.6 20 9 20 C8.7464147 24.31095008 8.4154009 26.49714628 5.625 29.875 C0.43842283 34.07365771 -5.60352587 33.60152273 -12 33 C-16.91084135 30.71996652 -19.47820794 27.763385 -22 23 C-23.39313111 17.62649427 -23.10697258 13.0918504 -21 8 C-15.76714696 -0.34676911 -9.2625729 -1.00437537 0 0 Z " fill="#FFFFFF" transform="translate(379,72)"/>
<path d="M0 0 C3.63 0 7.26 0 11 0 C11 3.3 11 6.6 11 10 C12.65 10 14.3 10 16 10 C16 12.31 16 14.62 16 17 C14.35 17 12.7 17 11 17 C11 22.28 11 27.56 11 33 C12.65 33 14.3 33 16 33 C16.09765625 39.15234375 16.09765625 39.15234375 16 41 C15 42 15 42 11.3125 42.25 C7.24269771 42.20608127 4.47417881 41.20313778 1 39 C-0.20029908 36.59940183 -0.11459743 35.10639351 -0.09765625 32.4296875 C-0.09282227 31.08583984 -0.09282227 31.08583984 -0.08789062 29.71484375 C-0.07951172 28.77769531 -0.07113281 27.84054688 -0.0625 26.875 C-0.05798828 25.93011719 -0.05347656 24.98523438 -0.04882812 24.01171875 C-0.03702357 21.67441613 -0.02055759 19.33723939 0 17 C-1.32 17 -2.64 17 -4 17 C-4 14.69 -4 12.38 -4 10 C-2.68 10 -1.36 10 0 10 C0 6.7 0 3.4 0 0 Z " fill="#FFFFFF" transform="translate(267,63)"/>
<path d="M0 0 C3.63 0 7.26 0 11 0 C11 14.52 11 29.04 11 44 C7.37 44 3.74 44 0 44 C0 29.48 0 14.96 0 0 Z " fill="#FFFFFF" transform="translate(185,60)"/>
<path d="M0 0 C1.32 0 2.64 0 4 0 C4 37.29 4 74.58 4 113 C2.68 113 1.36 113 0 113 C0 75.71 0 38.42 0 0 Z " fill="#8B96A2" transform="translate(514,27)"/>
<path d="M0 0 C2.31 0 4.62 0 7 0 C7 3.63 7 7.26 7 11 C8.65 11 10.3 11 12 11 C12 7.37 12 3.74 12 0 C14.31 0 16.62 0 19 0 C19 9.57 19 19.14 19 29 C16.69 29 14.38 29 12 29 C12 25.37 12 21.74 12 18 C10.35 18 8.7 18 7 18 C7 21.63 7 25.26 7 29 C4.69 29 2.38 29 0 29 C0 19.43 0 9.86 0 0 Z " fill="#FFFFFF" transform="translate(682,124)"/>
<path d="M0 0 C4.62 0 9.24 0 14 0 C18 4 18 4 18.50170898 6.42602539 C18.49985596 7.30766357 18.49800293 8.18930176 18.49609375 9.09765625 C18.49673828 10.06380859 18.49738281 11.02996094 18.49804688 12.02539062 C18.47806641 13.02763672 18.45808594 14.02988281 18.4375 15.0625 C18.44458984 16.06861328 18.45167969 17.07472656 18.45898438 18.11132812 C18.39519613 25.45679034 18.39519613 25.45679034 16.69628906 27.79199219 C13.86530477 29.80807023 10.64575606 29.30795345 7.3125 29.1875 C4.899375 29.125625 2.48625 29.06375 0 29 C0 19.43 0 9.86 0 0 Z M7 6 C7 11.61 7 17.22 7 23 C8.32 23 9.64 23 11 23 C11 17.39 11 11.78 11 6 C9.68 6 8.36 6 7 6 Z " fill="#FFFFFF" transform="translate(744,124)"/>
<path d="M0 0 C5.61 0 11.22 0 17 0 C17 2.97 17 5.94 17 9 C14.69 9 12.38 9 10 9 C10 8.01 10 7.02 10 6 C9.01 6 8.02 6 7 6 C8.41751398 9.52886376 9.83735584 10.6404902 13.125 12.4375 C15.2890625 13.94140625 15.2890625 13.94140625 17 16 C17.72519312 20.54057483 17.37844766 24.36401612 17 29 C11.39 29 5.78 29 0 29 C0 26.03 0 23.06 0 20 C2.31 20 4.62 20 7 20 C7 20.99 7 21.98 7 23 C7.99 23 8.98 23 10 23 C9.84232655 21.08915008 9.84232655 21.08915008 9 19 C6.90558768 17.43408863 6.90558768 17.43408863 4.4375 16 C1.2731718 13.71187027 0.14637898 12.76945269 -0.59375 8.87890625 C-0.5625 5.5625 -0.5625 5.5625 0 0 Z " fill="#FFFFFF" transform="translate(763,124)"/>
<path d="M0 0 C5.61 0 11.22 0 17 0 C17 2.97 17 5.94 17 9 C14.69 9 12.38 9 10 9 C10 8.01 10 7.02 10 6 C9.01 6 8.02 6 7 6 C8.41751398 9.52886376 9.83735584 10.6404902 13.125 12.4375 C15.2890625 13.94140625 15.2890625 13.94140625 17 16 C17.72519312 20.54057483 17.37844766 24.36401612 17 29 C11.39 29 5.78 29 0 29 C0 26.03 0 23.06 0 20 C2.31 20 4.62 20 7 20 C7 20.99 7 21.98 7 23 C7.99 23 8.98 23 10 23 C9.84232655 21.08915008 9.84232655 21.08915008 9 19 C6.90558768 17.43408863 6.90558768 17.43408863 4.4375 16 C1.2731718 13.71187027 0.14637898 12.76945269 -0.59375 8.87890625 C-0.5625 5.5625 -0.5625 5.5625 0 0 Z " fill="#FFFFFF" transform="translate(664,124)"/>
<path d="M0 0 C2.97 0 5.94 0 9 0 C9.05786668 3.79160297 9.09355054 7.58309311 9.125 11.375 C9.14175781 12.45523438 9.15851563 13.53546875 9.17578125 14.6484375 C9.18222656 15.6796875 9.18867187 16.7109375 9.1953125 17.7734375 C9.20578613 18.72653809 9.21625977 19.67963867 9.22705078 20.66162109 C9 23 9 23 7 25 C4.75341797 25.22705078 4.75341797 25.22705078 1.9921875 25.1953125 C1.00605469 25.18886719 0.01992187 25.18242188 -0.99609375 25.17578125 C-2.54490234 25.15064453 -2.54490234 25.15064453 -4.125 25.125 C-5.16527344 25.11597656 -6.20554687 25.10695313 -7.27734375 25.09765625 C-9.85179092 25.07403747 -12.42578212 25.04110149 -15 25 C-15 22.03 -15 19.06 -15 16 C-10.05 16 -5.1 16 0 16 C0 10.72 0 5.44 0 0 Z " fill="#0EECE0" transform="translate(69,96)"/>
<path d="M0 0 C2.97 0 5.94 0 9 0 C9 5.28 9 10.56 9 16 C13.95 16 18.9 16 24 16 C24 18.97 24 21.94 24 25 C20.56229171 25.05385444 17.12542358 25.09360344 13.6875 25.125 C12.71103516 25.14175781 11.73457031 25.15851563 10.72851562 25.17578125 C9.32182617 25.18544922 9.32182617 25.18544922 7.88671875 25.1953125 C7.02264404 25.20578613 6.15856934 25.21625977 5.26831055 25.22705078 C3 25 3 25 0 23 C-0.34057617 20.66162109 -0.34057617 20.66162109 -0.29296875 17.7734375 C-0.28330078 16.7421875 -0.27363281 15.7109375 -0.26367188 14.6484375 C-0.23853516 13.56820312 -0.21339844 12.48796875 -0.1875 11.375 C-0.17396484 10.28703125 -0.16042969 9.1990625 -0.14648438 8.078125 C-0.11104754 5.38492591 -0.06164331 2.69270626 0 0 Z " fill="#2FF477" transform="translate(7,96)"/>
<path d="M0 0 C4.95 0 9.9 0 15 0 C15 1.98 15 3.96 15 6 C12.36 6 9.72 6 7 6 C7 7.65 7 9.3 7 11 C9.64 11 12.28 11 15 11 C15 12.98 15 14.96 15 17 C12.36 17 9.72 17 7 17 C7 18.98 7 20.96 7 23 C9.64 23 12.28 23 15 23 C15 24.98 15 26.96 15 29 C10.05 29 5.1 29 0 29 C0 19.43 0 9.86 0 0 Z " fill="#FFFFFF" transform="translate(710,124)"/>
<path d="M0 0 C3.63 0 7.26 0 11 0 C11 10.23 11 20.46 11 31 C7.37 31 3.74 31 0 31 C0 20.77 0 10.54 0 0 Z " fill="#FFFFFF" transform="translate(250,73)"/>
<path d="M0 0 C3.63 0 7.26 0 11 0 C11 10.23 11 20.46 11 31 C7.37 31 3.74 31 0 31 C0 20.77 0 10.54 0 0 Z " fill="#FFFFFF" transform="translate(200,73)"/>
<path d="M0 0 C1.65 0 3.3 0 5 0 C6.49821059 3.37097383 7 5.20442119 7 9 C7.66 9 8.32 9 9 9 C9.144375 7.88625 9.28875 6.7725 9.4375 5.625 C10 2 10 2 11 0 C12.98 0 14.96 0 17 0 C17.66 2.64 18.32 5.28 19 8 C19.99 5.36 20.98 2.72 22 0 C23.98 0 25.96 0 28 0 C27.19291375 2.98066069 26.37842846 5.95924875 25.5625 8.9375 C25.33240234 9.78763672 25.10230469 10.63777344 24.86523438 11.51367188 C24.53168945 12.72700195 24.53168945 12.72700195 24.19140625 13.96484375 C23.88505249 15.08814087 23.88505249 15.08814087 23.57250977 16.23413086 C23 18 23 18 22 19 C20.33382885 19.04063832 18.66611905 19.042721 17 19 C16.01 16.36 15.02 13.72 14 11 C13.01 13.64 12.02 16.28 11 19 C9.02 19 7.04 19 5 19 C4.16142312 16.39741676 3.32896656 13.79314353 2.5 11.1875 C2.14228516 10.08051758 2.14228516 10.08051758 1.77734375 8.95117188 C0.80059864 5.86744804 0 3.25504191 0 0 Z " fill="#A8A8A8" transform="translate(606,25)"/>
<path d="M0 0 C3.81248426 -0.02887236 7.6249407 -0.04675492 11.4375 -0.0625 C12.52611328 -0.07087891 13.61472656 -0.07925781 14.73632812 -0.08789062 C15.77080078 -0.09111328 16.80527344 -0.09433594 17.87109375 -0.09765625 C18.82943115 -0.10289307 19.78776855 -0.10812988 20.77514648 -0.11352539 C23 0 23 0 24 1 C24.08713831 2.70772358 24.10700007 4.41898649 24.09765625 6.12890625 C24.09443359 7.16337891 24.09121094 8.19785156 24.08789062 9.26367188 C24.07951172 10.35228516 24.07113281 11.44089844 24.0625 12.5625 C24.05798828 13.65498047 24.05347656 14.74746094 24.04882812 15.87304688 C24.03699826 18.58208495 24.02051543 21.29101599 24 24 C21.03 24 18.06 24 15 24 C15 18.72 15 13.44 15 8 C10.05 8 5.1 8 0 8 C0 5.36 0 2.72 0 0 Z " fill="#2FF184" transform="translate(54,50)"/>
<path d="M0 0 C7.59 0 15.18 0 23 0 C23 2.64 23 5.28 23 8 C18.05 8 13.1 8 8 8 C8 13.28 8 18.56 8 24 C5.03 24 2.06 24 -1 24 C-1.02893932 20.37501666 -1.04677792 16.75006287 -1.0625 13.125 C-1.07087891 12.09246094 -1.07925781 11.05992188 -1.08789062 9.99609375 C-1.09111328 9.00996094 -1.09433594 8.02382813 -1.09765625 7.0078125 C-1.10289307 6.09660645 -1.10812988 5.18540039 -1.11352539 4.24658203 C-1 2 -1 2 0 0 Z " fill="#51F919" transform="translate(8,50)"/>
<path d="M0 0 C1.65 0 3.3 0 5 0 C5 8.25 5 16.5 5 25 C2.66666667 25 0.33333333 25 -2 25 C-2.598125 25.20625 -3.19625 25.4125 -3.8125 25.625 C-6.92962135 26.15936366 -8.30646655 25.65755904 -11 24 C-13.71488918 19.70872355 -14.32506108 17.16994343 -13.3125 12.1875 C-12.56907629 9.2492063 -12.18777633 8.18777633 -10 6 C-7.0517025 5.06895868 -5.58531848 4.76270872 -2.6875 5.9375 C-2.130625 6.288125 -1.57375 6.63875 -1 7 C-0.67 4.69 -0.34 2.38 0 0 Z M-6 10 C-8.30746414 11.87773264 -8.30746414 11.87773264 -8.25 14.9375 C-8.23517754 18.17282787 -8.23517754 18.17282787 -6 21 C-4.04105639 20.88693303 -4.04105639 20.88693303 -2 20 C-0.39980539 17.79174051 -0.39980539 17.79174051 0 15 C-1.0470311 12.14311671 -1.0470311 12.14311671 -3 10 C-3.99 10 -4.98 10 -6 10 Z " fill="#A8A8A8" transform="translate(701,19)"/>
<path d="M0 0 C13.33312645 -0.37036462 13.33312645 -0.37036462 16.3984375 1.33203125 C18.73987365 3.77055134 18.86672393 5.66809823 19 9 C18.25137024 11.92646178 17.38501251 13.57056297 15.375 15.8125 C11.84016181 17.5799191 8.92581331 17.19629067 5 17 C5 19.64 5 22.28 5 25 C3.35 25 1.7 25 0 25 C0 16.75 0 8.5 0 0 Z M5 4 C5 6.64 5 9.28 5 12 C7.91652174 12.16681109 7.91652174 12.16681109 11 12 C11.66 11.34 12.32 10.68 13 10 C12.67958603 7.39719432 12.67958603 7.39719432 12 5 C9.69 4.67 7.38 4.34 5 4 Z " fill="#A7A7A7" transform="translate(566,19)"/>
<path d="M0 0 C2.4294516 3.6441774 2.16179575 5.71241272 2 10 C-1.96 10 -5.92 10 -10 10 C-9.01 11.485 -9.01 11.485 -8 13 C-4.7 12.67 -1.4 12.34 2 12 C1 16 1 16 -1 18 C-5.03900451 19.00975113 -7.36328649 19.22825579 -11.3125 17.8125 C-14.13147712 15.91132939 -15.10338057 15.22782994 -16 12 C-16.44981384 7.05204772 -16.21981689 3.8859859 -13 0 C-8.75284187 -2.79098963 -4.46639043 -2.02121421 0 0 Z M-10 4 C-10 4.66 -10 5.32 -10 6 C-7.69 6 -5.38 6 -3 6 C-3.66 5.01 -4.32 4.02 -5 3 C-7.9254644 2.7763932 -7.9254644 2.7763932 -10 4 Z " fill="#A8A8A8" transform="translate(683,26)"/>
<path d="M0 0 C3.38084626 2.37572981 3.92879305 3.64396525 4.75 7.75 C4.87375 9.35875 4.87375 9.35875 5 11 C0.71 11 -3.58 11 -8 11 C-7.01 12.485 -7.01 12.485 -6 14 C-2.7 13.67 0.6 13.34 4 13 C3 17 3 17 1 19 C-2.85637233 20.16588001 -4.8522024 20.04433928 -8.75 18.875 C-12 17 -12 17 -13.5 14.8125 C-14.17507358 11.01521113 -14.08765341 7.71355949 -13 4 C-9.25605371 -0.86713018 -5.83377565 -1.5477364 0 0 Z M-6 4 C-6.99 5.485 -6.99 5.485 -8 7 C-5.69 7 -3.38 7 -1 7 C-1.33 6.01 -1.66 5.02 -2 4 C-3.32 4 -4.64 4 -6 4 Z " fill="#A8A8A8" transform="translate(648,25)"/>
<path d="M0 0 C2.31 0 4.62 0 7 0 C7 7.59 7 15.18 7 23 C9.64 23 12.28 23 15 23 C15 24.98 15 26.96 15 29 C10.05 29 5.1 29 0 29 C0 19.43 0 9.86 0 0 Z " fill="#FFFFFF" transform="translate(727,124)"/>
<path d="M0 0 C2.55040049 2.45594121 2.68012345 4.52541662 2.9375 8 C2.66799408 11.90783586 2.16892225 13.63018005 -0.3125 16.625 C-3.24437013 18.36827413 -4.96155716 18.6393242 -8.375 18.5 C-11.74433675 17.49636778 -13.10770819 16.31974555 -15.3125 13.625 C-16.84464888 10.56070224 -16.54188548 8.0084358 -16.3125 4.625 C-14.95950176 1.42053048 -13.98994403 0.02780456 -11 -1.75 C-6.79423491 -2.72808491 -3.70712034 -2.20423372 0 0 Z M-8.3125 2.625 C-10.69244368 4.56832332 -10.69244368 4.56832332 -10.5625 8.125 C-10.69244368 11.68167668 -10.69244368 11.68167668 -8.3125 13.625 C-5.53012345 13.21971099 -5.53012345 13.21971099 -3.3125 11.625 C-3.06246036 8.16678598 -3.06246036 8.16678598 -3.3125 4.625 C-3.9725 3.965 -4.6325 3.305 -5.3125 2.625 C-6.3025 2.625 -7.2925 2.625 -8.3125 2.625 Z " fill="#A9A8A9" transform="translate(602.3125,26.375)"/>
<path d="M0 0 C1.32 0 2.64 0 4 0 C4.33 1.98 4.66 3.96 5 6 C6.0828125 5.6596875 6.0828125 5.6596875 7.1875 5.3125 C10.81695175 4.90922758 12.13061469 5.82857328 15 8 C17.68819938 12.03229907 17.67303734 15.26381128 17 20 C15.14952764 23.28972865 14.02877397 24.61420976 10.5 25.9375 C7.66910225 26.00827244 6.46939899 25.27452851 4 24 C2.68 24.33 1.36 24.66 0 25 C0 16.75 0 8.5 0 0 Z M5.3125 10.0625 C3.27737227 13.06673617 3.62205412 15.47250511 4 19 C5.08674994 21.08984231 5.08674994 21.08984231 7 22 C9.97397616 21.72963853 10.85446026 21.14553974 13 19 C13.50774797 14.27278254 13.50774797 14.27278254 11.6875 10.0625 C9.28920856 8.55246465 7.71079144 8.55246465 5.3125 10.0625 Z " fill="#A9A9A9" transform="translate(719,19)"/>
<path d="M0 0 C2.31 0 4.62 0 7 0 C7 9.57 7 19.14 7 29 C4.69 29 2.38 29 0 29 C0 19.43 0 9.86 0 0 Z " fill="#FFFFFF" transform="translate(702,124)"/>
<path d="M0 0 C1.65 0 3.3 0 5 0 C6.32 3.63 7.64 7.26 9 11 C10.65 7.37 12.3 3.74 14 0 C15.32 0 16.64 0 18 0 C15.68860831 8.61703042 12.39204534 16.76688023 9 25 C6.69 25.33 4.38 25.66 2 26 C2 24.68 2 23.36 2 22 C3.32 22 4.64 22 6 22 C5.40421223 16.73378394 4.18691204 12.05591981 2.4375 7.0625 C2.20353516 6.37865234 1.96957031 5.69480469 1.72851562 4.99023438 C1.15788171 3.32491499 0.57972902 1.66217507 0 0 Z " fill="#A9A9A9" transform="translate(737,25)"/>
<path d="M0 0 C0 1.65 0 3.3 0 5 C-1.65 5.33 -3.3 5.66 -5 6 C-5.33 10.29 -5.66 14.58 -6 19 C-7.98 19 -9.96 19 -12 19 C-12 12.73 -12 6.46 -12 0 C-3 -1 -3 -1 0 0 Z " fill="#A8A8A8" transform="translate(667,25)"/>
<path d="M0 0 C3.63 0 7.26 0 11 0 C11 2.97 11 5.94 11 9 C7.37 9 3.74 9 0 9 C0 6.03 0 3.06 0 0 Z " fill="#FFFFFF" transform="translate(250,60)"/>
<path d="M0 0 C3.63 0 7.26 0 11 0 C11 2.97 11 5.94 11 9 C7.37 9 3.74 9 0 9 C0 6.03 0 3.06 0 0 Z " fill="#FFFFFF" transform="translate(200,60)"/>
</svg>
